<?xml version="1.0" standalone="no"?>
<!DOCTYPE svg PUBLIC "-//W3C//DTD SVG 20010904//EN"
 "http://www.w3.org/TR/2001/REC-SVG-20010904/DTD/svg10.dtd">
<svg version="1.0" xmlns="http://www.w3.org/2000/svg"
 width="282.000000pt" height="179.000000pt" viewBox="0 0 282.000000 179.000000"
 preserveAspectRatio="xMidYMid meet">

<g transform="translate(0.000000,179.000000) scale(0.100000,-0.100000)"
fill="#000000" stroke="none">
<path d="M0 895 l0 -895 308 1 c228 0 301 3 285 11 -24 11 -31 28 -13 28 6 0
25 -8 43 -17 35 -19 97 -27 97 -13 0 16 39 31 65 24 20 -5 23 -9 14 -20 -10
-12 29 -14 255 -14 232 0 266 2 266 15 0 18 46 38 72 32 10 -3 16 -1 12 4 -8
14 9 10 31 -8 16 -12 16 -14 3 -10 -10 3 -20 2 -23 -3 -3 -6 -15 -6 -29 0 -27
10 -37 5 -29 -16 7 -19 202 -20 222 -1 11 10 14 10 18 0 3 -10 39 -13 129 -13
89 0 123 3 118 11 -5 8 -1 8 13 0 26 -13 510 -14 518 -1 8 13 62 13 70 0 4 -6
78 -10 191 -10 l184 0 0 895 0 895 -257 -1 c-142 -1 -249 -4 -239 -6 18 -5 18
-6 -5 -19 l-24 -13 33 -1 c51 0 37 -20 -15 -21 -49 -1 -49 -2 2 -15 28 -6 29
-7 7 -13 -41 -11 -24 -26 35 -32 32 -3 48 -6 36 -7 -13 -1 -23 -6 -23 -12 0
-5 -15 -10 -33 -10 -31 0 -32 -2 -33 -41 -2 -45 -14 -63 -47 -66 -76 -8 -99
-16 -109 -39 -6 -13 -14 -24 -18 -24 -4 0 -12 -18 -19 -40 -9 -32 -16 -40 -36
-40 -13 0 -27 5 -30 10 -4 6 -23 17 -42 25 -38 16 -52 9 -53 -22 0 -7 -4 -13
-10 -13 -5 0 -13 -12 -16 -27 -4 -16 -17 -41 -28 -58 -12 -16 -21 -31 -22 -33
-4 -9 -34 13 -34 24 0 8 -6 14 -12 14 -7 0 -22 18 -32 40 -12 25 -26 40 -38
40 -15 0 -18 8 -18 42 l0 42 -30 -34 c-16 -19 -29 -40 -30 -46 0 -6 -8 -18
-18 -27 -10 -9 -32 -44 -48 -77 -16 -33 -32 -60 -36 -60 -5 0 -8 -7 -8 -15 0
-9 -10 -26 -23 -39 -13 -13 -21 -28 -19 -34 6 -18 -35 -14 -42 4 -3 9 -6 67
-6 130 0 69 -4 114 -10 114 -5 0 -10 18 -10 40 0 34 -3 40 -21 40 -11 0 -27 7
-35 15 -22 22 -37 19 -70 -15 -16 -16 -33 -30 -37 -30 -11 0 -37 -26 -37 -37
0 -4 -17 -16 -37 -26 -36 -18 -37 -18 -51 0 -10 13 -12 37 -7 96 6 61 4 77 -6
78 -8 0 -5 4 6 9 l20 9 -20 1 c-16 1 -15 4 9 14 l29 13 -54 8 c-36 6 -46 10
-30 13 19 3 21 6 10 13 -10 6 -6 9 16 9 l30 1 -35 15 c-29 13 -54 15 -145 8
-60 -5 -143 -7 -183 -7 -44 1 -70 -2 -67 -7 4 -6 -17 -10 -50 -10 -30 0 -72
-7 -92 -15 -46 -19 -68 -13 -53 14 5 11 10 28 10 39 0 11 10 26 22 34 20 13
21 17 9 32 -11 13 -11 19 -1 31 11 13 -22 15 -289 15 l-301 0 0 -895z m943
748 c-13 -2 -33 -2 -45 0 -13 2 -3 4 22 4 25 0 35 -2 23 -4z m1334 -129 c-3
-3 -12 -4 -19 -1 -8 3 -5 6 6 6 11 1 17 -2 13 -5z m-527 -974 c0 -5 -9 -19
-20 -30 -11 -11 -20 -24 -20 -30 0 -13 46 -24 61 -14 7 4 27 8 46 10 26 2 33
-1 29 -11 -3 -8 -1 -17 4 -20 6 -4 10 -16 9 -28 0 -15 -2 -17 -6 -7 -8 22 -24
30 -57 30 -27 0 -28 -1 -13 -18 26 -28 7 -47 -33 -33 -18 6 -46 11 -61 11 -15
0 -31 5 -34 10 -3 6 -17 7 -31 4 -18 -5 -24 -2 -24 10 0 10 -8 16 -22 16 -17
0 -19 -3 -10 -12 8 -8 5 -14 -15 -25 -33 -17 -42 -17 -50 5 -4 9 -14 22 -22
28 -13 10 -13 14 -2 28 7 9 18 16 24 16 6 0 23 12 39 27 28 27 59 31 146 19
23 -3 32 0 32 10 0 8 7 14 15 14 8 0 15 -4 15 -10z m80 0 c12 -8 11 -10 -7
-10 -13 0 -23 -4 -23 -10 0 -5 -7 -10 -15 -10 -20 0 -19 17 3 29 21 13 24 13
42 1z m-542 -78 c8 -6 -7 -12 -42 -18 -30 -6 -53 -7 -50 -2 3 4 16 8 29 8 13
0 27 5 30 10 7 12 16 12 33 2z m68 -19 c-10 -10 -19 5 -10 18 6 11 8 11 12 0
2 -7 1 -15 -2 -18z m574 -3 c13 -8 13 -10 -2 -10 -9 0 -20 5 -23 10 -8 13 5
13 25 0z m-630 -75 c-6 -15 -15 -23 -21 -19 -8 4 -9 -1 -4 -15 7 -22 6 -22
-15 -4 l-21 18 22 18 c22 18 22 18 -29 11 -43 -5 -56 -3 -72 11 -36 32 -25 42
45 40 36 -1 69 3 72 8 3 5 12 -2 19 -16 10 -19 11 -33 4 -52z m701 65 c5 0 9
-7 9 -15 0 -8 5 -15 11 -15 6 0 9 -5 7 -12 -3 -7 6 -23 18 -35 13 -13 26 -38
29 -57 4 -19 20 -49 37 -67 24 -28 29 -30 25 -13 -3 16 0 20 13 17 11 -3 16
-13 15 -28 -2 -18 1 -22 16 -18 15 4 18 1 13 -11 -3 -9 -18 -16 -33 -16 -19 0
-22 -3 -12 -9 9 -6 22 -6 34 1 10 5 21 7 24 4 8 -8 -5 -36 -17 -36 -6 0 -8 5
-4 11 4 7 0 9 -14 5 -27 -9 -91 33 -91 59 -1 17 1 17 9 5 8 -13 10 -12 10 3 0
9 -4 17 -8 17 -5 0 -14 11 -20 25 -12 26 -32 34 -32 12 0 -15 -40 -51 -48 -43
-3 3 3 15 12 25 18 19 17 20 -5 18 -13 0 -27 -6 -31 -12 -4 -5 -8 3 -8 19 0
28 -1 29 -15 10 -11 -14 -17 -16 -23 -7 -12 19 -52 12 -52 -9 0 -11 -5 -15
-15 -12 -11 5 -13 2 -8 -12 7 -19 5 -18 -41 23 -11 10 -16 10 -25 -1 -13 -16
2 -32 19 -21 15 9 12 -4 -5 -21 -8 -9 -15 -11 -15 -6 0 5 -9 19 -20 32 -11 13
-20 19 -20 14 0 -5 -8 -14 -19 -21 -14 -9 -24 -8 -44 2 -22 11 -25 11 -20 -1
3 -8 10 -14 16 -14 6 0 7 -3 4 -7 -4 -3 -21 6 -37 22 -23 22 -33 26 -42 17 -7
-7 -22 -12 -34 -12 -17 0 -22 -5 -21 -20 1 -11 6 -19 12 -16 13 5 38 -21 26
-29 -5 -3 -11 -1 -13 3 -1 5 -32 12 -67 15 -36 3 -59 2 -52 -3 10 -6 8 -10 -8
-15 -11 -3 -21 -14 -21 -23 0 -12 3 -13 12 -4 16 16 34 15 53 -4 12 -13 19
-14 30 -4 9 7 26 10 42 5 22 -5 24 -8 12 -17 -11 -7 -9 -8 6 -3 51 19 64 18
58 -4 -4 -17 -1 -21 21 -21 23 0 85 -25 126 -51 8 -5 23 -12 33 -15 31 -11 18
-24 -25 -24 -28 0 -38 3 -30 9 11 7 11 9 -2 14 -8 3 -22 0 -30 -8 -20 -21 -29
-19 -23 6 4 15 2 19 -9 15 -8 -3 -21 -9 -31 -13 -11 -4 -14 -3 -9 5 4 7 1 12
-8 12 -8 0 -20 8 -25 18 -6 9 -11 13 -11 7 0 -5 -5 -3 -10 5 -9 13 -12 13 -23
-1 -14 -18 -37 -14 -37 6 0 12 -27 30 -42 27 -5 -1 -8 3 -8 9 0 6 -15 10 -32
8 -18 -1 -41 2 -50 6 -10 4 -24 5 -32 2 -8 -3 -17 -1 -20 6 -2 7 -5 5 -5 -5
-1 -11 -7 -15 -21 -11 -11 3 -20 0 -20 -6 0 -6 -5 -11 -11 -11 -5 0 -8 4 -5 9
4 5 0 12 -6 15 -9 3 -8 9 6 20 11 9 20 26 21 38 1 13 6 22 11 21 5 -1 14 -2
19 -3 21 -5 36 0 30 9 -3 5 0 13 6 17 8 5 9 3 4 -6 -6 -9 -4 -11 5 -5 10 6 9
11 -6 22 -22 16 -11 42 24 58 12 5 22 12 22 15 0 3 16 4 35 2 30 -4 35 -1 35
17 0 14 -4 20 -12 15 -6 -4 -8 -3 -4 4 3 6 -2 15 -11 21 -10 5 -14 13 -9 18 5
4 11 2 13 -5 3 -6 9 -9 15 -6 5 3 12 -3 15 -14 3 -11 12 -24 21 -28 25 -11 52
-12 52 -3 0 5 -6 9 -12 9 -9 0 -8 4 2 11 12 8 10 10 -10 8 -41 -2 -45 0 -24
15 27 20 83 12 101 -13 20 -30 43 -51 54 -51 6 0 7 5 3 12 -5 8 -2 9 9 5 11
-4 22 1 29 13 13 21 38 27 38 10 0 -5 7 -10 15 -10 8 0 14 5 13 12 -3 11 34
24 92 32 13 2 26 8 27 13 2 5 18 8 36 6 17 -2 26 0 20 3 -19 8 -16 27 3 20 9
-3 20 -6 25 -6z m-611 -10 c0 -5 -2 -10 -4 -10 -3 0 -8 5 -11 10 -3 6 -1 10 4
10 6 0 11 -4 11 -10z m-40 -4 c0 -2 -7 -9 -15 -16 -13 -11 -14 -10 -9 4 5 14
24 23 24 12z m-544 -41 c15 -12 16 -16 5 -24 -7 -5 -22 -6 -32 -4 -35 9 -20
-6 27 -27 36 -17 49 -19 60 -9 23 19 167 18 187 -2 16 -14 14 -16 -24 -17 -22
-1 -49 2 -59 8 -13 7 -23 4 -40 -10 -25 -22 -40 -26 -40 -10 0 5 -7 7 -16 3
-15 -5 -15 -7 0 -15 9 -5 16 -13 16 -18 0 -10 -41 -4 -49 7 -10 14 -30 13 -25
-1 6 -16 47 -36 77 -36 22 -1 22 -1 2 -16 -11 -8 -26 -12 -33 -9 -7 3 -23 0
-35 -6 -21 -12 -22 -11 -4 8 16 18 16 21 2 26 -10 4 -15 1 -15 -11 0 -10 -3
-13 -8 -6 -4 5 -25 11 -46 12 -35 3 -38 1 -26 -13 10 -12 15 -13 21 -3 4 7 10
10 14 7 3 -3 -4 -14 -16 -24 -16 -15 -22 -16 -28 -6 -6 10 -11 9 -24 -3 -19
-19 -34 -21 -20 -3 6 6 13 25 17 40 6 25 4 27 -11 19 -13 -6 -26 -4 -43 7 -26
17 -38 41 -20 41 6 0 10 -4 10 -10 0 -5 9 -10 20 -10 11 0 20 5 20 10 0 6 7
10 16 10 12 0 15 6 10 24 -6 25 11 36 84 57 16 4 19 7 8 8 -10 0 -18 6 -18 11
0 14 13 12 36 -5z m1714 1 c0 -3 -4 -8 -10 -11 -5 -3 -10 -1 -10 4 0 6 5 11
10 11 6 0 10 -2 10 -4z m-240 -26 c0 -5 -4 -10 -10 -10 -5 0 -10 5 -10 10 0 6
5 10 10 10 6 0 10 -4 10 -10z m52 -28 c-1 -8 6 -11 25 -7 16 2 10 -1 -12 -9
-22 -7 -39 -16 -37 -21 1 -5 -11 -9 -28 -9 -25 -1 -29 2 -24 19 4 11 11 26 17
33 13 16 63 12 59 -6z m-1222 -28 c0 -14 -3 -14 -15 -4 -8 7 -15 14 -15 16 0
2 7 4 15 4 8 0 15 -7 15 -16z m1257 -18 c0 -19 -34 -28 -41 -11 -6 16 2 25 24
25 9 0 17 -6 17 -14z m-1377 -6 c8 -5 11 -10 5 -10 -5 0 -17 5 -25 10 -8 5
-10 10 -5 10 6 0 17 -5 25 -10z m270 0 c0 -5 -2 -10 -4 -10 -3 0 -8 5 -11 10
-3 6 -1 10 4 10 6 0 11 -4 11 -10z m-672 -13 c8 -10 6 -13 -7 -13 -11 0 -17 6
-14 13 3 7 6 13 8 13 1 0 7 -6 13 -13z m369 -3 c2 -5 -8 -11 -22 -12 -16 -1
-25 3 -25 13 0 16 42 15 47 -1z m90 -26 c-3 -8 -6 -5 -6 6 -1 11 2 17 5 13 3
-3 4 -12 1 -19z m205 -6 c-7 -2 -12 -10 -12 -18 0 -16 -16 -19 -25 -4 -3 6 1
13 9 16 9 3 13 10 10 15 -3 5 3 6 12 2 11 -4 13 -8 6 -11z m-722 -2 c-20 -13
-33 -13 -25 0 3 6 14 10 23 10 15 0 15 -2 2 -10z m120 0 c0 -5 -2 -10 -4 -10
-3 0 -8 5 -11 10 -3 6 -1 10 4 10 6 0 11 -4 11 -10z m335 -14 c17 -4 51 -8 78
-10 50 -2 78 -18 56 -31 -7 -5 -10 -4 -6 2 4 6 -6 13 -24 15 -19 3 -33 0 -36
-8 -3 -9 -11 -10 -29 -3 -17 6 -23 6 -19 -1 3 -6 0 -10 -7 -10 -8 0 -19 -5
-26 -12 -14 -14 -71 -17 -69 -3 1 6 -6 9 -15 9 -30 -3 -20 14 12 21 21 5 32
14 36 32 4 14 9 21 13 15 3 -5 20 -12 36 -16z m1085 4 c0 -5 -4 -10 -10 -10
-5 0 -10 5 -10 10 0 6 5 10 10 10 6 0 10 -4 10 -10z m288 -26 c5 3 9 -8 10
-24 0 -22 -4 -30 -16 -30 -13 0 -14 -2 -4 -9 11 -6 10 -10 -3 -15 -10 -3 -24
-1 -31 5 -11 9 -14 8 -14 -5 0 -9 -4 -16 -10 -16 -5 0 -9 12 -8 26 2 21 7 25
26 21 17 -3 22 -1 18 9 -3 8 1 14 9 14 8 0 15 -5 15 -12 0 -6 3 -9 6 -5 3 3
-1 16 -10 29 -9 12 -16 29 -15 38 0 9 4 5 10 -8 5 -13 13 -21 17 -18z m-1758
11 c10 -12 10 -15 -3 -15 -8 0 -18 -6 -20 -12 -3 -7 -6 -1 -6 15 -1 30 10 35
29 12z m1664 -10 c-4 -8 -8 -15 -10 -15 -2 0 -4 7 -4 15 0 8 4 15 10 15 5 0 7
-7 4 -15z m-1706 -14 c3 -9 0 -11 -9 -5 -11 6 -12 5 -2 -8 15 -17 7 -29 -13
-21 -21 8 -18 55 3 51 9 -2 18 -9 21 -17z m1140 -8 c-3 -28 -25 -44 -25 -19 0
8 4 13 9 10 4 -3 8 2 8 11 0 12 -6 15 -20 10 -11 -4 -20 -2 -20 4 0 6 12 11
26 11 22 0 25 -4 22 -27z m946 15 c4 3 4 -2 0 -11 -3 -10 -9 -15 -12 -12 -3 3
-16 -2 -29 -11 -19 -12 -27 -13 -39 -3 -19 16 -18 24 5 26 15 1 18 -3 14 -15
-6 -15 -5 -15 11 -3 9 8 15 20 12 28 -4 10 -1 11 13 4 10 -6 21 -7 25 -3z
m-1578 -14 c-6 -15 -4 -15 11 -3 9 8 14 9 10 2 -4 -6 -1 -14 5 -16 8 -3 6 -6
-4 -6 -10 -1 -18 -5 -18 -11 0 -5 -6 -10 -14 -10 -8 0 -16 -5 -18 -10 -2 -6
-9 -1 -16 10 -11 18 -10 21 13 30 14 5 25 14 25 20 0 5 3 10 6 10 3 0 3 -7 0
-16z m127 4 c3 -10 7 -10 20 0 12 10 21 11 37 2 25 -13 17 -32 -13 -29 -42 3
-45 0 -41 -46 1 -25 -2 -45 -7 -45 -13 0 -29 44 -18 48 15 6 -15 42 -36 43
-19 0 -19 1 3 11 12 6 22 15 22 20 0 13 28 9 33 -4z m1083 -13 c-10 -8 -24
-11 -29 -8 -6 4 -2 10 9 14 31 12 40 9 20 -6z m134 5 c0 -5 -7 -10 -15 -10 -8
0 -15 5 -15 10 0 6 7 10 15 10 8 0 15 -4 15 -10z m-240 -57 c0 -20 -16 -23
-38 -7 -30 21 -19 45 14 30 13 -6 24 -16 24 -23z m-350 19 c0 -16 -29 -47 -36
-39 -5 4 -2 12 6 17 13 9 13 10 0 10 -13 0 -13 1 0 10 18 12 30 13 30 2z
m-541 -16 c9 -11 9 -16 0 -21 -10 -7 -28 10 -29 28 0 12 17 8 29 -7z m82 -13
c13 -17 13 -17 -5 -3 -18 14 -18 13 -12 -8 7 -21 -3 -30 -17 -16 -6 6 9 44 17
44 2 0 10 -8 17 -17z m1195 -3 c0 -13 -4 -16 -10 -10 -6 6 -14 6 -23 -1 -7 -7
-13 -7 -13 -2 0 6 10 15 23 21 12 6 22 11 22 11 1 1 1 -8 1 -19z m-716 -9 c0
-6 -4 -13 -10 -16 -5 -3 -10 1 -10 9 0 9 5 16 10 16 6 0 10 -4 10 -9z m60 -7
c0 -2 -7 -4 -15 -4 -8 0 -15 4 -15 10 0 5 7 7 15 4 8 -4 15 -8 15 -10z m50 -4
c-20 -13 -40 -13 -40 0 0 6 12 10 28 10 21 0 24 -2 12 -10z m350 5 c0 -2 -18
-13 -40 -24 -22 -10 -40 -16 -40 -11 0 12 23 28 50 33 14 2 26 5 28 6 1 0 2
-1 2 -4z m-1175 -25 c3 -5 1 -10 -4 -10 -6 0 -11 5 -11 10 0 6 2 10 4 10 3 0
8 -4 11 -10z m775 6 c0 -3 -4 -8 -10 -11 -5 -3 -10 -1 -10 4 0 6 5 11 10 11 6
0 10 -2 10 -4z m420 -6 c0 -5 -5 -10 -11 -10 -5 0 -7 5 -4 10 3 6 8 10 11 10
2 0 4 -4 4 -10z m-1630 -25 c0 -10 -41 -11 -49 -1 -8 10 -3 11 19 8 17 -2 30
-5 30 -7z m1230 11 c0 -3 -4 -8 -10 -11 -5 -3 -10 -1 -10 4 0 6 5 11 10 11 6
0 10 -2 10 -4z"/>
<path d="M1545 470 c-3 -5 -1 -10 4 -10 6 0 11 5 11 10 0 6 -2 10 -4 10 -3 0
-8 -4 -11 -10z"/>
<path d="M1488 453 c7 -3 16 -2 19 1 4 3 -2 6 -13 5 -11 0 -14 -3 -6 -6z"/>
<path d="M1178 403 c7 -3 16 -2 19 1 4 3 -2 6 -13 5 -11 0 -14 -3 -6 -6z"/>
<path d="M1990 391 c0 -5 5 -13 10 -16 6 -3 10 -2 10 4 0 5 -4 13 -10 16 -5 3
-10 2 -10 -4z"/>
<path d="M1847 353 c4 -9 0 -11 -11 -7 -23 9 -20 -9 4 -24 24 -15 42 -8 33 13
-4 11 -1 13 12 9 13 -5 16 -3 13 7 -3 8 -16 14 -30 14 -17 1 -24 -3 -21 -12z"/>
<path d="M1567 289 c7 -7 15 -10 18 -7 3 3 -2 9 -12 12 -14 6 -15 5 -6 -5z"/>
<path d="M1826 275 c-3 -8 -1 -15 4 -15 6 0 10 7 10 15 0 8 -2 15 -4 15 -2 0
-6 -7 -10 -15z"/>
<path d="M1408 273 c7 -3 16 -2 19 1 4 3 -2 6 -13 5 -11 0 -14 -3 -6 -6z"/>
<path d="M1510 269 c-19 -5 -40 -11 -47 -12 -7 -2 -20 -10 -30 -19 -10 -8 -28
-21 -40 -27 -26 -13 -31 -51 -7 -51 9 0 18 9 21 19 3 11 18 24 34 30 16 5 29
12 29 15 0 3 -7 2 -17 -1 -11 -4 -14 -3 -9 5 4 6 23 14 44 17 56 10 72 15 72
26 0 10 -2 10 -50 -2z"/>
<path d="M1676 257 c3 -8 11 -14 19 -14 20 0 19 4 -5 17 -15 8 -18 8 -14 -3z"/>
<path d="M720 276 c0 -10 28 -13 41 -5 10 6 7 9 -13 9 -16 0 -28 -2 -28 -4z"/>
<path d="M944 165 c1 -8 4 -16 7 -17 2 -2 3 -1 2 1 -2 2 2 10 8 18 9 10 8 13
-4 13 -8 0 -14 -7 -13 -15z"/>
<path d="M2178 1773 c12 -2 32 -2 45 0 12 2 2 4 -23 4 -25 0 -35 -2 -22 -4z"/>
<path d="M1058 1731 c-98 -24 -96 -35 7 -27 78 5 170 22 140 25 -5 1 -3 6 5
11 24 16 -76 10 -152 -9z"/>
<path d="M2203 1733 c9 -2 23 -2 30 0 6 3 -1 5 -18 5 -16 0 -22 -2 -12 -5z"/>
<path d="M838 1703 c23 -2 61 -2 85 0 23 2 4 4 -43 4 -47 0 -66 -2 -42 -4z"/>
</g>
</svg>
